<!DOCTYPE svg PUBLIC "-//W3C//DTD SVG 1.1//EN" "http://www.w3.org/Graphics/SVG/1.1/DTD/svg11.dtd">
<!-- Uploaded to: SVG Repo, www.svgrepo.com, Transformed by: SVG Repo Mixer Tools -->
<svg height="800px" width="800px" version="1.1" id="Capa_1" xmlns="http://www.w3.org/2000/svg" xmlns:xlink="http://www.w3.org/1999/xlink" viewBox="0 0 58 58" xml:space="preserve" fill="#000000">
<g id="SVGRepo_bgCarrier" stroke-width="0"/>
<g id="SVGRepo_tracerCarrier" stroke-linecap="round" stroke-linejoin="round"/>
<g id="SVGRepo_iconCarrier"> <g> <path style="fill:#8487d7;" d="M48,19.929v21.141C48,43.793,45.793,46,43.071,46H22L12,57V46H4.929C2.207,46,0,43.793,0,41.071 l0-21.141C0,17.207,2.207,15,4.929,15h38.141C45.793,15,48,17.207,48,19.929z"/> <path style="fill:#2f3337;" d="M53.071,1H14.929C12.207,1,10,3.207,10,5.93V15h33.071C45.793,15,48,17.207,48,19.93V32h5.071 C55.793,32,58,29.793,58,27.07V5.93C58,3.207,55.793,1,53.071,1z"/> </g> </g>
</svg>